<mxfile host="app.diagrams.net" agent="Mozilla/5.0 (X11; Linux x86_64; rv:130.0) Gecko/20100101 Firefox/130.0" version="24.7.15">
  <diagram id="C5RBs43oDa-KdzZeNtuy" name="Page-1">
    <mxGraphModel dx="2796" dy="2100" grid="1" gridSize="10" guides="1" tooltips="1" connect="1" arrows="1" fold="1" page="1" pageScale="1" pageWidth="827" pageHeight="1169" math="0" shadow="0">
      <root>
        <mxCell id="WIyWlLk6GJQsqaUBKTNV-0" />
        <mxCell id="WIyWlLk6GJQsqaUBKTNV-1" parent="WIyWlLk6GJQsqaUBKTNV-0" />
        <mxCell id="vw6R2ffQzR5KHQPkrkAo-34" value="" style="rounded=0;whiteSpace=wrap;html=1;movable=1;resizable=1;rotatable=1;deletable=1;editable=1;locked=0;connectable=1;" vertex="1" parent="WIyWlLk6GJQsqaUBKTNV-1">
          <mxGeometry x="-20" y="-20" width="490" height="711" as="geometry" />
        </mxCell>
        <mxCell id="ROz2tC8UCH84FMvyF4rq-5" style="edgeStyle=orthogonalEdgeStyle;rounded=0;orthogonalLoop=1;jettySize=auto;html=1;exitX=0.5;exitY=1;exitDx=0;exitDy=0;entryX=0.5;entryY=0;entryDx=0;entryDy=0;" parent="WIyWlLk6GJQsqaUBKTNV-1" source="WIyWlLk6GJQsqaUBKTNV-3" target="vw6R2ffQzR5KHQPkrkAo-1" edge="1">
          <mxGeometry relative="1" as="geometry">
            <mxPoint x="220" y="150" as="targetPoint" />
          </mxGeometry>
        </mxCell>
        <mxCell id="WIyWlLk6GJQsqaUBKTNV-3" value="Access Website" style="rounded=1;whiteSpace=wrap;html=1;fontSize=12;glass=0;strokeWidth=1;shadow=0;arcSize=0;" parent="WIyWlLk6GJQsqaUBKTNV-1" vertex="1">
          <mxGeometry x="160" y="80" width="120" height="40" as="geometry" />
        </mxCell>
        <mxCell id="ROz2tC8UCH84FMvyF4rq-2" style="edgeStyle=orthogonalEdgeStyle;rounded=0;orthogonalLoop=1;jettySize=auto;html=1;exitX=0.5;exitY=1;exitDx=0;exitDy=0;exitPerimeter=0;entryX=0.5;entryY=0;entryDx=0;entryDy=0;" parent="WIyWlLk6GJQsqaUBKTNV-1" source="vw6R2ffQzR5KHQPkrkAo-32" target="WIyWlLk6GJQsqaUBKTNV-3" edge="1">
          <mxGeometry relative="1" as="geometry">
            <mxPoint x="220" y="50" as="sourcePoint" />
          </mxGeometry>
        </mxCell>
        <mxCell id="ROz2tC8UCH84FMvyF4rq-35" style="edgeStyle=orthogonalEdgeStyle;rounded=0;orthogonalLoop=1;jettySize=auto;html=1;entryX=0.5;entryY=0;entryDx=0;entryDy=0;" parent="WIyWlLk6GJQsqaUBKTNV-1" edge="1">
          <mxGeometry relative="1" as="geometry">
            <mxPoint x="223" y="573" as="sourcePoint" />
            <mxPoint x="222.5" y="630" as="targetPoint" />
          </mxGeometry>
        </mxCell>
        <mxCell id="vw6R2ffQzR5KHQPkrkAo-0" style="edgeStyle=orthogonalEdgeStyle;rounded=0;orthogonalLoop=1;jettySize=auto;html=1;exitX=0.5;exitY=1;exitDx=0;exitDy=0;entryX=0.5;entryY=0;entryDx=0;entryDy=0;" edge="1" parent="WIyWlLk6GJQsqaUBKTNV-1" source="vw6R2ffQzR5KHQPkrkAo-1" target="vw6R2ffQzR5KHQPkrkAo-6">
          <mxGeometry relative="1" as="geometry" />
        </mxCell>
        <mxCell id="vw6R2ffQzR5KHQPkrkAo-1" value="Log In" style="rounded=1;whiteSpace=wrap;html=1;fontSize=12;glass=0;strokeWidth=1;shadow=0;arcSize=0;" vertex="1" parent="WIyWlLk6GJQsqaUBKTNV-1">
          <mxGeometry x="160" y="150" width="120" height="40" as="geometry" />
        </mxCell>
        <mxCell id="vw6R2ffQzR5KHQPkrkAo-2" value="No" style="edgeStyle=orthogonalEdgeStyle;rounded=0;orthogonalLoop=1;jettySize=auto;html=1;exitX=0;exitY=0.5;exitDx=0;exitDy=0;entryX=0;entryY=0.5;entryDx=0;entryDy=0;" edge="1" parent="WIyWlLk6GJQsqaUBKTNV-1" source="vw6R2ffQzR5KHQPkrkAo-6" target="vw6R2ffQzR5KHQPkrkAo-1">
          <mxGeometry relative="1" as="geometry" />
        </mxCell>
        <mxCell id="vw6R2ffQzR5KHQPkrkAo-12" value="Yes" style="edgeStyle=orthogonalEdgeStyle;rounded=0;orthogonalLoop=1;jettySize=auto;html=1;entryX=0.5;entryY=0;entryDx=0;entryDy=0;" edge="1" parent="WIyWlLk6GJQsqaUBKTNV-1" source="vw6R2ffQzR5KHQPkrkAo-6" target="vw6R2ffQzR5KHQPkrkAo-9">
          <mxGeometry relative="1" as="geometry" />
        </mxCell>
        <mxCell id="vw6R2ffQzR5KHQPkrkAo-6" value="isValid?" style="rhombus;whiteSpace=wrap;html=1;shadow=0;fontFamily=Helvetica;fontSize=12;align=center;strokeWidth=1;spacing=6;spacingTop=-4;" vertex="1" parent="WIyWlLk6GJQsqaUBKTNV-1">
          <mxGeometry x="170" y="220" width="100" height="80" as="geometry" />
        </mxCell>
        <mxCell id="vw6R2ffQzR5KHQPkrkAo-15" style="edgeStyle=orthogonalEdgeStyle;rounded=0;orthogonalLoop=1;jettySize=auto;html=1;" edge="1" parent="WIyWlLk6GJQsqaUBKTNV-1" source="vw6R2ffQzR5KHQPkrkAo-9">
          <mxGeometry relative="1" as="geometry">
            <mxPoint x="220" y="430" as="targetPoint" />
          </mxGeometry>
        </mxCell>
        <mxCell id="vw6R2ffQzR5KHQPkrkAo-9" value="Access Student Panel" style="rounded=1;whiteSpace=wrap;html=1;fontSize=12;glass=0;strokeWidth=1;shadow=0;arcSize=0;" vertex="1" parent="WIyWlLk6GJQsqaUBKTNV-1">
          <mxGeometry x="150" y="350" width="140" height="40" as="geometry" />
        </mxCell>
        <mxCell id="vw6R2ffQzR5KHQPkrkAo-16" style="edgeStyle=orthogonalEdgeStyle;rounded=0;orthogonalLoop=1;jettySize=auto;html=1;entryX=0.484;entryY=0.007;entryDx=0;entryDy=0;exitX=1.925;exitY=0.856;exitDx=0;exitDy=0;exitPerimeter=0;entryPerimeter=0;" edge="1" parent="WIyWlLk6GJQsqaUBKTNV-1" target="vw6R2ffQzR5KHQPkrkAo-17" source="vw6R2ffQzR5KHQPkrkAo-25">
          <mxGeometry relative="1" as="geometry">
            <mxPoint x="80" y="440" as="sourcePoint" />
          </mxGeometry>
        </mxCell>
        <mxCell id="vw6R2ffQzR5KHQPkrkAo-17" value="View Information" style="rounded=1;whiteSpace=wrap;html=1;fontSize=12;glass=0;strokeWidth=1;shadow=0;arcSize=0;" vertex="1" parent="WIyWlLk6GJQsqaUBKTNV-1">
          <mxGeometry x="20" y="485" width="120" height="40" as="geometry" />
        </mxCell>
        <mxCell id="vw6R2ffQzR5KHQPkrkAo-19" style="edgeStyle=orthogonalEdgeStyle;rounded=0;orthogonalLoop=1;jettySize=auto;html=1;exitX=0.725;exitY=0.497;exitDx=0;exitDy=0;exitPerimeter=0;entryX=0.486;entryY=0.035;entryDx=0;entryDy=0;entryPerimeter=0;" edge="1" parent="WIyWlLk6GJQsqaUBKTNV-1" target="vw6R2ffQzR5KHQPkrkAo-20" source="vw6R2ffQzR5KHQPkrkAo-25">
          <mxGeometry relative="1" as="geometry">
            <mxPoint x="223" y="440" as="sourcePoint" />
            <mxPoint x="223" y="485" as="targetPoint" />
          </mxGeometry>
        </mxCell>
        <mxCell id="vw6R2ffQzR5KHQPkrkAo-20" value="Register" style="rounded=1;whiteSpace=wrap;html=1;fontSize=12;glass=0;strokeWidth=1;shadow=0;arcSize=0;" vertex="1" parent="WIyWlLk6GJQsqaUBKTNV-1">
          <mxGeometry x="162.5" y="485" width="120" height="40" as="geometry" />
        </mxCell>
        <mxCell id="vw6R2ffQzR5KHQPkrkAo-25" value="" style="html=1;points=[];perimeter=orthogonalPerimeter;fillColor=strokeColor;rotation=90;" vertex="1" parent="WIyWlLk6GJQsqaUBKTNV-1">
          <mxGeometry x="217.5" y="233.75" width="5" height="396.25" as="geometry" />
        </mxCell>
        <mxCell id="vw6R2ffQzR5KHQPkrkAo-27" value="" style="html=1;points=[];perimeter=orthogonalPerimeter;fillColor=strokeColor;rotation=90;" vertex="1" parent="WIyWlLk6GJQsqaUBKTNV-1">
          <mxGeometry x="218.75" y="373.75" width="5" height="397.5" as="geometry" />
        </mxCell>
        <mxCell id="vw6R2ffQzR5KHQPkrkAo-28" style="edgeStyle=orthogonalEdgeStyle;rounded=0;orthogonalLoop=1;jettySize=auto;html=1;entryX=-0.056;entryY=0.497;entryDx=0;entryDy=0;entryPerimeter=0;" edge="1" parent="WIyWlLk6GJQsqaUBKTNV-1" source="vw6R2ffQzR5KHQPkrkAo-20" target="vw6R2ffQzR5KHQPkrkAo-27">
          <mxGeometry relative="1" as="geometry" />
        </mxCell>
        <mxCell id="vw6R2ffQzR5KHQPkrkAo-29" style="edgeStyle=orthogonalEdgeStyle;rounded=0;orthogonalLoop=1;jettySize=auto;html=1;entryX=-0.167;entryY=0.862;entryDx=0;entryDy=0;entryPerimeter=0;exitX=0.477;exitY=0.979;exitDx=0;exitDy=0;exitPerimeter=0;" edge="1" parent="WIyWlLk6GJQsqaUBKTNV-1" source="vw6R2ffQzR5KHQPkrkAo-17" target="vw6R2ffQzR5KHQPkrkAo-27">
          <mxGeometry relative="1" as="geometry" />
        </mxCell>
        <mxCell id="vw6R2ffQzR5KHQPkrkAo-32" value="" style="ellipse;fillColor=strokeColor;html=1;" vertex="1" parent="WIyWlLk6GJQsqaUBKTNV-1">
          <mxGeometry x="205" y="20" width="30" height="30" as="geometry" />
        </mxCell>
        <mxCell id="vw6R2ffQzR5KHQPkrkAo-33" value="" style="ellipse;html=1;shape=endState;fillColor=strokeColor;" vertex="1" parent="WIyWlLk6GJQsqaUBKTNV-1">
          <mxGeometry x="207.5" y="630" width="30" height="30" as="geometry" />
        </mxCell>
        <mxCell id="vw6R2ffQzR5KHQPkrkAo-36" value="View News and Announcements" style="rounded=1;whiteSpace=wrap;html=1;fontSize=12;glass=0;strokeWidth=1;shadow=0;arcSize=0;" vertex="1" parent="WIyWlLk6GJQsqaUBKTNV-1">
          <mxGeometry x="310" y="485" width="120" height="40" as="geometry" />
        </mxCell>
        <mxCell id="vw6R2ffQzR5KHQPkrkAo-38" style="edgeStyle=orthogonalEdgeStyle;rounded=0;orthogonalLoop=1;jettySize=auto;html=1;entryX=0.5;entryY=0;entryDx=0;entryDy=0;exitX=0.325;exitY=0.121;exitDx=0;exitDy=0;exitPerimeter=0;" edge="1" parent="WIyWlLk6GJQsqaUBKTNV-1" source="vw6R2ffQzR5KHQPkrkAo-25" target="vw6R2ffQzR5KHQPkrkAo-36">
          <mxGeometry relative="1" as="geometry">
            <mxPoint x="370" y="440" as="sourcePoint" />
            <mxPoint x="231" y="496" as="targetPoint" />
          </mxGeometry>
        </mxCell>
        <mxCell id="vw6R2ffQzR5KHQPkrkAo-39" style="edgeStyle=orthogonalEdgeStyle;rounded=0;orthogonalLoop=1;jettySize=auto;html=1;entryX=0.367;entryY=0.126;entryDx=0;entryDy=0;entryPerimeter=0;exitX=0.5;exitY=1;exitDx=0;exitDy=0;" edge="1" parent="WIyWlLk6GJQsqaUBKTNV-1" source="vw6R2ffQzR5KHQPkrkAo-36" target="vw6R2ffQzR5KHQPkrkAo-27">
          <mxGeometry relative="1" as="geometry">
            <mxPoint x="233" y="535" as="sourcePoint" />
            <mxPoint x="232" y="580" as="targetPoint" />
          </mxGeometry>
        </mxCell>
      </root>
    </mxGraphModel>
  </diagram>
</mxfile>
